# xmcd CD database file
#
# Track frame offsets:
#	150
#	40927
#	97825
#	116705
#	154938
#	195366
#	220167
#	256457
#
# Disc length: 3989 seconds
#
# Revision: 0
# Processed by: cddbd v1.5.2PL0 Copyright (c) Steve Scherf et al.
# Submitted via: CDex 1.70beta2
#
DISCID=660f9308
DTITLE=Mike Baggetta - Thieves and Secrets
DYEAR=2013
DGENRE=Jazz
TTITLE0=Transmission
TTITLE1=Thieves, Secrets
TTITLE2=New Scotia
TTITLE3=The Wind
TTITLE4=World Leaders
TTITLE5=Hidden Things
TTITLE6=Country Wisdom
TTITLE7=Bridges
EXTD=YEAR: 2013
EXTT0=
EXTT1=
EXTT2=
EXTT3=
EXTT4=
EXTT5=
EXTT6=
EXTT7=
PLAYORDER=
